<svg xmlns="http://www.w3.org/2000/svg" width="30.542" height="27.513" viewBox="0 0 30.542 27.513"><defs><style>.a{fill:#7e7e7e;}.b{fill:red;}</style></defs><path class="a" d="M27.361,26.132H3.181A3.322,3.322,0,0,1,0,22.693V14.439A3.322,3.322,0,0,1,3.181,11h5.09a.69.69,0,0,1,0,1.376H3.181a1.993,1.993,0,0,0-1.909,2.063v8.254a1.993,1.993,0,0,0,1.909,2.063H27.361a1.993,1.993,0,0,0,1.909-2.063V14.439a1.993,1.993,0,0,0-1.909-2.063H22.27a.69.69,0,0,1,0-1.376h5.09a3.322,3.322,0,0,1,3.181,3.439v8.254A3.322,3.322,0,0,1,27.361,26.132Z" transform="translate(0 1.381)"/><path class="b" d="M6.636,25.386a.69.69,0,0,1,0-1.376,3.986,3.986,0,0,0,3.818-4.127V10.942H6.636a.638.638,0,0,1-.588-.425.733.733,0,0,1,.137-.75l7-7.566a.6.6,0,0,1,.9,0l7,7.566a.727.727,0,0,1,.137.75.638.638,0,0,1-.587.425H16.817v3.439c0,6.067-4.565,11-10.177,11.005ZM8.172,9.566H11.09a.664.664,0,0,1,.636.688v9.63a5.817,5.817,0,0,1-.778,2.922,9.785,9.785,0,0,0,4.6-8.424V10.254a.664.664,0,0,1,.636-.688H19.1L13.636,3.661Z" transform="translate(1.636 -2)"/></svg>